<svg width="32" height="32" viewBox="0 0 32 32" fill="none" xmlns="http://www.w3.org/2000/svg">
<g clip-path="url(#clip0_63_2)">
<path d="M19.2858 3.00622C19.7169 3.0052 20.148 3.00419 20.6114 3.03535C20.6439 3.49839 20.6441 3.92924 20.6442 4.39185C20.6441 4.77037 20.651 5.11733 20.6413 5.46383C20.6362 5.65015 20.7015 5.72448 20.8924 5.71962C21.2613 5.71023 21.6306 5.71807 22.0001 5.75034C22.0007 8.52417 22.001 11.2664 22.0012 14.0087C22.0012 14.3021 21.9872 14.5964 22.0054 14.8887C22.0208 15.1343 21.9497 15.2422 21.6868 15.2202C21.4402 15.1997 21.1895 15.2302 20.9426 15.2119C20.697 15.1937 20.6373 15.2965 20.6403 15.5252C20.6509 16.3263 20.6437 17.1276 20.6116 17.929C20.2642 17.9294 19.9478 17.943 19.6332 17.9254C19.3793 17.9112 19.2555 17.9742 19.2822 18.2586C19.3063 18.5156 19.279 18.7771 19.2898 19.0359C19.2978 19.2277 19.2219 19.2969 19.0331 19.2896C18.763 19.2791 18.4915 19.2978 18.2217 19.2837C18.0058 19.2723 17.9127 19.3408 17.9267 19.5687C17.9425 19.827 17.916 20.0881 17.9343 20.3461C17.9517 20.5916 17.8497 20.6576 17.6209 20.6476C17.2721 20.6325 16.9221 20.6433 16.5727 20.6113C16.5728 20.2404 16.5812 19.901 16.5698 19.5623C16.5631 19.3621 16.624 19.2712 16.8378 19.2833C17.0857 19.2974 17.3358 19.2746 17.5835 19.2898C17.8397 19.3054 17.9305 19.1807 17.93 18.9484C17.9293 18.6884 17.9364 18.4282 17.9282 18.1685C17.9228 17.9959 17.9858 17.9209 18.164 17.9277C18.401 17.9368 18.6391 17.9209 18.876 17.9318C19.172 17.9454 19.2988 17.8425 19.2935 17.5203C19.2763 16.4693 19.287 15.4177 19.2878 14.3664C19.2882 13.9607 19.3197 13.9301 19.7357 13.927C19.9392 13.9254 20.1439 13.9126 20.3459 13.9302C20.5923 13.9517 20.6591 13.8457 20.648 13.6163C20.6327 13.3005 20.6442 12.9834 20.6442 12.6669C20.6442 10.9147 20.6387 9.16239 20.6502 7.41023C20.652 7.13951 20.5722 7.05185 20.3047 7.06841C19.9669 7.08933 19.6268 7.07334 19.2876 7.04151C19.2874 6.66289 19.2805 6.31583 19.2901 5.96923C19.2952 5.7825 19.2288 5.70865 19.0382 5.71367C18.6693 5.72338 18.2998 5.71633 17.9305 5.68447C17.9302 5.22184 17.93 4.79097 17.9616 4.35982C18.3287 4.35945 18.6644 4.34922 18.9992 4.36295C19.2143 4.37176 19.3007 4.30343 19.2912 4.07897C19.2759 3.72196 19.2863 3.36386 19.2858 3.00622Z" fill="#E2E2E2"/>
<path d="M3.00622 13.8608C3.00567 13.0587 3.01219 12.2565 3.00013 11.4545C2.99665 11.2227 3.06124 11.1241 3.30448 11.1434C3.52902 11.1613 3.75785 11.1294 3.9816 11.1516C4.2725 11.1804 4.37827 11.092 4.36736 10.7815C4.34359 10.1045 4.37223 9.42581 4.35572 8.74836C4.34936 8.48759 4.43932 8.41079 4.68721 8.42874C4.9457 8.44745 5.20695 8.42455 5.46633 8.43544C5.65907 8.44354 5.72704 8.36645 5.72014 8.17779C5.70983 7.89573 5.72538 7.61272 5.71496 7.33066C5.70802 7.14282 5.77351 7.06397 5.96744 7.07233C6.2268 7.0835 6.48801 7.06087 6.74658 7.07899C6.99173 7.09616 7.10126 7.02515 7.07903 6.76096C7.05825 6.51416 7.08899 6.26317 7.0706 6.01599C7.05232 5.77013 7.15441 5.70319 7.38405 5.71398C7.71096 5.72935 8.03914 5.71766 8.43039 5.71729C8.92539 5.71717 9.35678 5.71728 9.78822 5.74917C9.78818 6.21204 9.78809 6.64312 9.75623 7.07468C9.39793 7.0753 9.07037 7.0915 8.74521 7.07052C8.48255 7.05356 8.41064 7.15668 8.42803 7.4017C8.44631 7.65936 8.42417 7.91966 8.43461 8.1782C8.4422 8.36632 8.37358 8.44294 8.18161 8.43488C7.9231 8.42403 7.66204 8.45112 7.40529 8.4273C7.12426 8.40123 7.05676 8.5188 7.07066 8.7754C7.0889 9.11218 7.07453 9.45072 7.04238 9.78858C6.70615 9.78866 6.39949 9.81168 6.0979 9.78246C5.76983 9.75066 5.70989 9.88683 5.7111 10.1842C5.72162 12.7662 5.7174 15.3482 5.71735 17.9304C5.71735 17.9304 5.71689 17.9309 5.68513 17.9308C5.223 17.9303 4.79263 17.9298 4.36175 17.8977C4.36082 17.4352 4.36042 17.0044 4.36007 16.5419C4.35999 15.7695 4.34433 15.0285 4.3669 14.2886C4.37684 13.9628 4.31065 13.8126 3.94797 13.8527C3.63757 13.8871 3.3204 13.8605 3.00622 13.8608Z" fill="#E9EAE9"/>
<path d="M17.9298 4.36062C17.93 4.79148 17.9302 5.22235 17.9304 5.68512C17.9303 5.71704 17.93 5.71741 17.8982 5.71734C15.1737 5.71718 12.4809 5.71709 9.78809 5.68521C9.78831 5.2226 9.78852 4.79177 9.78874 4.36095C10.2193 4.36045 10.6499 4.35996 11.1442 4.35958C11.5547 4.35973 11.9018 4.35299 12.2484 4.36256C12.4344 4.36769 12.5099 4.30313 12.5048 4.11168C12.4951 3.74266 12.5025 3.37319 12.5028 3.00391C12.9346 3.00394 13.3663 3.00398 13.8291 3.03666C13.8598 3.3841 13.8784 3.70036 13.854 4.01328C13.8311 4.30602 13.9493 4.36753 14.2197 4.36483C15.4563 4.3525 16.6931 4.36015 17.9298 4.36062Z" fill="#E9EAE9"/>
<path d="M4.36001 16.5733C4.36041 17.004 4.36081 17.4348 4.36109 17.9292C4.36092 18.7692 4.36996 19.5457 4.35561 20.3217C4.35099 20.5713 4.42219 20.6539 4.678 20.6491C5.47656 20.6341 6.27558 20.6438 7.07425 20.6441C7.07425 20.6441 7.07452 20.644 7.07445 20.6759C7.07453 21.1387 7.07468 21.5697 7.07447 22.0011C7.07447 22.0011 7.07327 22.0022 7.04152 22.0021C6.1243 22.0022 5.23883 22.0025 4.35336 22.0028C3.91775 22.0028 3.48214 22.0028 3.00244 22.0028C3.00244 20.1861 3.00244 18.4117 3.03508 16.6052C3.49848 16.573 3.92925 16.5731 4.36001 16.5733Z" fill="#D7D7D7"/>
<path d="M4.35498 22.0339C5.23889 22.002 6.12437 22.0017 7.04178 22.0333C7.07381 22.4022 7.08513 22.7397 7.07001 23.0761C7.05989 23.3014 7.14634 23.3747 7.36316 23.3614C7.59822 23.3471 7.83618 23.3741 8.07041 23.3541C8.34172 23.331 8.45777 23.4116 8.43664 23.7041C8.41243 24.0394 8.4312 24.3778 8.3995 24.715C8.03271 24.7152 7.69731 24.7253 7.36286 24.7117C7.14888 24.703 7.0606 24.7692 7.07027 24.9945C7.08558 25.3512 7.0751 25.709 7.07392 26.0705C7.07231 26.0746 7.0693 26.0829 7.0693 26.0829C6.63582 26.0829 6.20233 26.0829 5.71612 26.0829C5.71612 25.6233 5.71612 25.2033 5.71601 24.7195C5.71619 24.3312 5.70298 24.0059 5.7212 23.6823C5.73494 23.4383 5.6648 23.3379 5.40467 23.353C5.05893 23.3731 4.71109 23.357 4.36415 23.3564C4.36161 22.9261 4.35908 22.4958 4.35498 22.0339Z" fill="#C9CACA"/>
<path d="M30.1374 13.8633C30.1382 15.6494 30.139 17.4356 30.106 19.2541C29.645 19.2878 29.2179 19.2891 28.7894 19.2583C28.7883 17.4364 28.7884 15.6466 28.8201 13.8574C29.2803 13.8598 29.7089 13.8615 30.1374 13.8633Z" fill="#BCBCBC"/>
<path d="M19.285 30.1347C17.4983 30.1367 15.7117 30.1387 13.8927 30.1066C13.8599 29.6442 13.8594 29.2158 13.8907 28.7871C15.7116 28.7877 17.5006 28.7886 19.2888 28.8211C19.287 29.28 19.286 29.7074 19.285 30.1347Z" fill="#BCBCBC"/>
<path d="M17.962 4.36006C16.6934 4.35989 15.4567 4.35223 14.2201 4.36457C13.9497 4.36727 13.8315 4.30576 13.8543 4.01301C13.8787 3.7001 13.8602 3.38384 13.8613 3.03765C15.6492 3.00534 17.4361 3.00442 19.2546 3.00498C19.2867 3.36411 19.2763 3.72221 19.2915 4.07922C19.3011 4.30368 19.2147 4.37201 18.9995 4.36319C18.6648 4.34947 18.3291 4.3597 17.962 4.36006Z" fill="#D7D7D7"/>
<path d="M4.36005 16.5412C3.92924 16.5729 3.49847 16.5728 3.03609 16.5732C3.00433 15.6903 3.00419 14.8069 3.00513 13.8918C3.32038 13.8598 3.63754 13.8865 3.94795 13.8521C4.31063 13.8119 4.37681 13.9622 4.36688 14.288C4.3443 15.0278 4.35997 15.7689 4.36005 16.5412Z" fill="#E2E2E2"/>
<path d="M23.3535 28.7781C22.9252 28.7815 22.4969 28.7849 22.0052 28.7898C21.5109 28.7932 21.0801 28.7951 20.6481 28.7937C20.6468 28.7903 20.6442 28.7837 20.645 28.7522C20.646 28.3949 20.6622 28.0681 20.6414 27.7437C20.6246 27.482 20.7276 27.4216 20.9715 27.426C21.7689 27.4403 22.5666 27.4332 23.362 27.4657C23.3577 27.9241 23.3556 28.3511 23.3535 28.7781Z" fill="#BCBCBC"/>
<path d="M21.9998 5.7188C21.6307 5.7181 21.2614 5.71026 20.8925 5.71965C20.7015 5.72451 20.6362 5.65017 20.6414 5.46386C20.651 5.11736 20.6441 4.7704 20.676 4.39198C21.1397 4.35838 21.5715 4.35644 22.0033 4.35449C22.4327 4.35669 22.8622 4.35888 23.3244 4.39409C23.3581 4.85675 23.3589 5.28638 23.3279 5.71633C22.8639 5.71736 22.4319 5.71808 21.9998 5.7188Z" fill="#C9CACA"/>
<path d="M11.1438 28.7973C10.7137 28.7934 10.2836 28.7894 9.82112 28.7521C9.78815 28.29 9.78758 27.8611 9.81893 27.431C10.2824 27.4298 10.7139 27.4297 11.1453 27.4614C11.1452 27.9218 11.1454 28.3505 11.1451 28.7837C11.1445 28.7882 11.1438 28.7973 11.1438 28.7973Z" fill="#C9CACA"/>
<path d="M27.4407 24.7172C27.4407 25.1505 27.4407 25.5838 27.4407 26.0731C26.981 26.0731 26.5616 26.0731 26.1075 26.0726C26.0727 26.072 26.0657 26.0651 26.0684 26.0341C26.0717 25.6877 26.0867 25.3713 26.0683 25.0569C26.0533 24.7996 26.1225 24.6883 26.4032 24.7083C26.7395 24.7323 27.0789 24.7129 27.4228 24.7135C27.4288 24.7148 27.4407 24.7172 27.4407 24.7172Z" fill="#C9CACA"/>
<path d="M8.42302 27.4379C7.98654 27.4379 7.55006 27.4379 7.07138 27.4379C7.07138 26.9735 7.07138 26.5593 7.07045 26.1144C7.06951 26.0838 7.07252 26.0754 7.1057 26.0737C7.56993 26.0722 8.00098 26.0725 8.43175 26.1046C8.43394 26.565 8.43641 26.9937 8.43493 27.4262C8.43099 27.4302 8.42302 27.4379 8.42302 27.4379Z" fill="#D7D7D7"/>
<path d="M9.75698 4.36091C9.78862 4.79208 9.78841 5.22291 9.78819 5.68552C9.3568 5.71719 8.92541 5.71708 8.46214 5.71677C8.43063 5.34729 8.43808 4.97783 8.42846 4.60881C8.42347 4.41766 8.49825 4.35253 8.68451 4.35771C9.03114 4.36734 9.37823 4.36053 9.75698 4.36091Z" fill="#F1F2F2"/>
<path d="M26.0763 26.0758C26.0799 26.5082 26.0799 26.9372 26.0799 27.4323C25.6307 27.4323 25.2069 27.4323 24.7497 27.4311C24.7162 27.4299 24.7119 27.4202 24.7137 27.3894C24.7154 26.9363 24.7154 26.514 24.7154 26.0654C25.2103 26.0654 25.638 26.0654 26.0658 26.0654C26.0658 26.0654 26.0728 26.0724 26.0763 26.0758Z" fill="#C9CACA"/>
<path d="M9.78679 27.4326C9.78736 27.8615 9.78793 28.2904 9.7893 28.7505C9.42106 28.7835 9.05184 28.7785 8.6831 28.7896C8.49665 28.7952 8.42262 28.731 8.42817 28.5395C8.43822 28.1932 8.42971 27.8463 8.42589 27.4687C8.42283 27.4378 8.4308 27.43 8.46567 27.4287C8.92929 27.4291 9.35804 27.4309 9.78679 27.4326Z" fill="#D7D7D7"/>
<path d="M4.36242 23.3883C4.71075 23.357 5.0586 23.3731 5.40433 23.353C5.66446 23.3379 5.73461 23.4383 5.72087 23.6823C5.70264 24.0059 5.71586 24.3312 5.71446 24.6881C5.35531 24.7185 4.99678 24.7048 4.63936 24.719C4.41403 24.7279 4.34702 24.6426 4.3563 24.4272C4.37074 24.0921 4.36069 23.7559 4.36242 23.3883Z" fill="#D7D7D7"/>
<path d="M22.0025 4.32345C21.5715 4.3567 21.1397 4.35865 20.6762 4.3605C20.6442 3.92954 20.6439 3.49868 20.6431 3.03627C21.0114 3.00415 21.3806 3.01021 21.7493 3.00026C21.9365 2.99521 22.0093 3.06258 22.0039 3.25238C21.9941 3.59871 22.0016 3.94553 22.0025 4.32345Z" fill="#F1F2F2"/>
<path d="M23.3857 28.7806C23.3556 28.3509 23.3577 27.9239 23.3932 27.464C23.855 27.4273 24.2834 27.4236 24.7119 27.4199C24.7119 27.4199 24.7162 27.4296 24.7183 27.4345C24.7187 27.7745 24.7029 28.1103 24.7197 28.4444C24.7323 28.6968 24.6701 28.813 24.3893 28.7912C24.0672 28.7662 23.7418 28.7841 23.3857 28.7806Z" fill="#D7D7D7"/>
<path d="M12.5065 30.1386C12.1488 30.1405 11.7908 30.1328 11.4337 30.1477C11.2195 30.1567 11.131 30.0909 11.1414 29.8652C11.1568 29.5306 11.1451 29.1947 11.1444 28.8287C11.1438 28.798 11.1446 28.7889 11.1768 28.7874C11.6404 28.7859 12.0719 28.7859 12.5026 28.7865C12.5026 28.7865 12.5009 28.7889 12.5016 28.8206C12.5036 29.281 12.505 29.7098 12.5065 30.1386Z" fill="#E2E2E2"/>
<path d="M12.5375 30.1398C12.5046 29.7093 12.5032 29.2806 12.5331 28.8191C12.9958 28.7867 13.4272 28.7869 13.8586 28.7872C13.8592 29.2156 13.8597 29.644 13.861 30.1032C13.4308 30.1366 12.9998 30.1391 12.5375 30.1398Z" fill="#C9CACA"/>
<path d="M12.4712 3.00347C12.5028 3.37308 12.4954 3.74255 12.5051 4.11158C12.5101 4.30302 12.4346 4.36758 12.2487 4.36245C11.9021 4.35288 11.555 4.35963 11.1761 4.35922C11.1447 3.98963 11.1523 3.62021 11.1428 3.25125C11.1378 3.05996 11.2128 2.99513 11.3989 3.00028C11.7455 3.00989 12.0925 3.0031 12.4712 3.00347Z" fill="#F1F2F2"/>
<path d="M19.3168 30.1378C19.2859 29.7075 19.2869 29.2801 19.3203 28.8204C19.7831 28.7868 20.2136 28.7855 20.6441 28.7842C20.6441 28.7842 20.6467 28.7909 20.6461 28.8248C20.6436 29.2858 20.6417 29.7128 20.6398 30.1397C20.2095 30.1401 19.7791 30.1404 19.3168 30.1378Z" fill="#C9CACA"/>
<path d="M20.6722 30.1413C20.6419 29.7127 20.6438 29.2858 20.6475 28.8282C21.0802 28.7957 21.5109 28.7938 21.9739 28.794C22.0047 29.1089 21.9826 29.4233 22.0078 29.734C22.0332 30.0477 21.9447 30.1821 21.6088 30.1501C21.3098 30.1216 21.006 30.1433 20.6722 30.1413Z" fill="#E9EAE9"/>
<path d="M28.7811 23.3525C28.783 23.7104 28.7756 24.0686 28.7904 24.4259C28.7993 24.6394 28.7353 24.7297 28.5085 24.7193C28.1737 24.7038 27.8376 24.7156 27.4714 24.7165C27.4406 24.7173 27.4288 24.7148 27.4277 24.6824C27.4291 24.2212 27.4315 23.7926 27.4654 23.3619C27.9249 23.3575 28.353 23.355 28.7811 23.3525Z" fill="#E2E2E2"/>
<path d="M28.7821 9.79333C28.7843 10.2229 28.7865 10.6526 28.7869 11.1135C28.7851 11.1448 28.7749 11.1449 28.7444 11.1452C28.3787 11.1456 28.0432 11.1343 27.7088 11.1495C27.4834 11.1598 27.4176 11.0707 27.426 10.8568C27.44 10.4999 27.4312 10.1422 27.4637 9.78613C27.9242 9.78943 28.3531 9.79138 28.7821 9.79333Z" fill="#C9CACA"/>
<path d="M28.783 23.3217C28.3529 23.3554 27.9248 23.3579 27.464 23.33C27.4309 22.9869 27.452 22.6723 27.4242 22.3621C27.3964 22.0514 27.5215 21.9772 27.8059 21.9972C28.1282 22.0198 28.4533 22.0024 28.7828 22.0023C28.7885 22.0022 28.7999 22.0017 28.7999 22.0017C28.7949 22.4313 28.7899 22.8609 28.783 23.3217Z" fill="#BCBCBC"/>
<path d="M30.1379 20.6396C30.1398 20.9857 30.1287 21.3325 30.1479 21.6776C30.1614 21.9212 30.0918 22.0221 29.8323 22.0055C29.5099 21.9849 29.1851 22.0007 28.8307 22.001C28.8001 22.0012 28.7887 22.0017 28.7876 21.9702C28.7893 21.5088 28.7921 21.0791 28.8262 20.6473C29.2842 20.6434 29.7111 20.6415 30.1379 20.6396Z" fill="#E2E2E2"/>
<path d="M30.1399 20.6085C29.711 20.6417 29.2842 20.6435 28.8238 20.6152C28.7905 20.1533 28.7908 19.7216 28.7911 19.29C29.2182 19.2886 29.6453 19.2873 30.1033 19.2852C30.1367 19.7153 30.1393 20.1462 30.1399 20.6085Z" fill="#C9CACA"/>
<path d="M23.3598 5.71599C23.359 5.28635 23.3581 4.85671 23.356 4.39585C23.7123 4.36304 24.0705 4.37119 24.4276 4.35625C24.643 4.34723 24.7292 4.41517 24.7191 4.6398C24.7041 4.97449 24.716 5.31039 24.7161 5.68091C24.7158 5.71604 24.7121 5.72378 24.6808 5.72115C24.219 5.71749 23.7886 5.71645 23.3583 5.71599H23.3598Z" fill="#E2E2E2"/>
<path d="M24.7177 5.713C25.0879 5.71173 25.4564 5.72196 25.8245 5.71383C26.0135 5.70965 26.0814 5.77862 26.0761 5.96666C26.0664 6.31247 26.0746 6.65878 26.0747 7.03899C26.074 7.07311 26.0684 7.07872 26.0372 7.0767C25.5758 7.0746 25.1458 7.07453 24.7159 7.04266C24.7148 6.58213 24.7136 6.15338 24.7124 5.72463C24.7124 5.72463 24.716 5.71689 24.7177 5.713Z" fill="#D7D7D7"/>
<path d="M26.0766 7.06986C26.4366 7.06944 26.7942 7.08369 27.1508 7.06993C27.3757 7.06125 27.4419 7.14652 27.4333 7.36118C27.4199 7.69552 27.4316 8.03087 27.4314 8.39848C27.4301 8.43116 27.4212 8.43323 27.3904 8.43243C26.9309 8.43114 26.5022 8.43064 26.0734 8.39846C26.0716 7.93728 26.07 7.50779 26.0684 7.07829C26.0684 7.07829 26.0739 7.07268 26.0766 7.06986Z" fill="#D7D7D7"/>
<path d="M30.1401 13.8307C29.709 13.861 29.2805 13.8593 28.8197 13.8254C28.7884 13.3619 28.7894 12.9306 28.822 12.5C29.2828 12.5016 29.712 12.5027 30.1413 12.5037C30.1417 12.9353 30.1421 13.367 30.1401 13.8307Z" fill="#D7D7D7"/>
<path d="M28.7835 9.76098C28.3529 9.79127 27.924 9.78932 27.4627 9.75462C27.4272 9.29235 27.424 8.86284 27.4209 8.43333C27.4209 8.43333 27.4298 8.43126 27.4342 8.43008C27.7627 8.42962 28.0879 8.44797 28.4103 8.42578C28.6946 8.40623 28.8204 8.47969 28.7925 8.79081C28.7647 9.10117 28.7856 9.41591 28.7835 9.76098Z" fill="#E9EAE9"/>
<path d="M30.1422 12.4717C29.7121 12.5027 29.2828 12.5017 28.8202 12.501C28.7867 12.5014 28.7834 12.5039 28.7844 12.4719C28.7819 12.0081 28.7784 11.5763 28.7749 11.1444C28.7749 11.1444 28.7851 11.1444 28.7903 11.1447C29.1347 11.145 29.4753 11.1638 29.8128 11.1391C30.0962 11.1183 30.1629 11.2335 30.1479 11.4901C30.1295 11.8057 30.1432 12.1231 30.1422 12.4717Z" fill="#E9EAE9"/>
<path d="M19.2876 7.0732C19.6268 7.07327 19.9669 7.08926 20.3048 7.06834C20.5722 7.05178 20.652 7.13944 20.6502 7.41016C20.6387 9.16233 20.6443 10.9146 20.6442 12.6668C20.6442 12.9834 20.6327 13.3005 20.648 13.6163C20.6591 13.8456 20.5923 13.9517 20.3459 13.9301C20.144 13.9125 19.9392 13.9254 19.7358 13.9269C19.3197 13.93 19.2882 13.9606 19.2879 14.3663C19.287 15.4177 19.2763 16.4692 19.2935 17.5202C19.2988 17.8424 19.172 17.9454 18.876 17.9318C18.6391 17.9209 18.401 17.9368 18.164 17.9277C17.9859 17.9208 17.9228 17.9958 17.9282 18.1684C17.9364 18.4282 17.9294 18.6884 17.93 18.9484C17.9306 19.1806 17.8397 19.3054 17.5836 19.2897C17.3358 19.2745 17.0857 19.2973 16.8378 19.2833C16.624 19.2711 16.5631 19.3621 16.5698 19.5622C16.5812 19.901 16.5728 20.2404 16.5729 20.6116C16.5731 20.6437 16.5724 20.6432 16.5407 20.6433C15.7438 20.6435 14.9785 20.6509 14.2135 20.6396C13.9553 20.6358 13.842 20.7163 13.8551 20.9873C13.8714 21.3241 13.8587 21.6623 13.8267 22.0001C12.0073 22 10.2197 21.9997 8.43176 21.9677C8.43142 21.5894 8.42441 21.2424 8.43398 20.8959C8.43915 20.7087 8.37148 20.6361 8.18166 20.6411C7.81281 20.6507 7.44352 20.6436 7.07441 20.6435C7.07441 20.6435 7.07398 20.6438 7.07406 20.6118C7.0741 20.2428 7.06281 19.9052 7.07794 19.5689C7.08806 19.3437 7.00186 19.2701 6.78489 19.2834C6.54983 19.2978 6.31186 19.2708 6.07762 19.2908C5.80626 19.3139 5.6903 19.2332 5.71142 18.9407C5.73562 18.6054 5.71687 18.267 5.71677 17.9299C5.71677 17.9299 5.71702 17.9297 5.74897 17.9296C6.55803 17.9525 7.33513 17.9758 8.11226 17.998C8.32847 18.0042 8.44751 18.0911 8.43362 18.3298C8.4205 18.5551 8.4396 18.7822 8.42829 19.0078C8.41844 19.204 8.47545 19.2911 8.69221 19.2904C10.7835 19.2841 12.8749 19.2848 14.9663 19.2893C15.1599 19.2897 15.2256 19.2177 15.2188 19.0301C15.2085 18.7479 15.2242 18.4647 15.2135 18.1824C15.2063 17.991 15.2799 17.9201 15.4701 17.9272C15.7523 17.9377 16.0355 17.922 16.3177 17.9324C16.5062 17.9393 16.5833 17.8721 16.5759 17.6788C16.5651 17.3966 16.5807 17.1135 16.5708 16.8312C16.5642 16.6457 16.6249 16.5604 16.8213 16.5703C17.0469 16.5816 17.2755 16.5531 17.499 16.5773C17.8295 16.6132 17.9577 16.5204 17.9395 16.1574C17.9065 15.5034 17.9442 14.8461 17.924 14.1911C17.9153 13.9114 18.0152 13.8329 18.2745 13.855C18.4877 13.8731 18.706 13.8389 18.918 13.8633C19.2247 13.8986 19.2954 13.778 19.2937 13.4836C19.2814 11.347 19.2875 9.20996 19.2876 7.0732Z" fill="#E9EAE9"/>
<path d="M8.43181 21.9997C10.2195 22 12.0071 22.0003 13.8584 22.0008C14.6971 22.0009 15.4724 21.9924 16.2472 22.0057C16.4908 22.0099 16.5936 21.9497 16.578 21.6879C16.5572 21.3409 16.5725 20.9918 16.5723 20.6435C16.9216 20.6434 17.2719 20.6327 17.6207 20.6479C17.8495 20.6579 17.9516 20.5919 17.9342 20.3464C17.9159 20.0884 17.9424 19.8273 17.9265 19.569C17.9125 19.3411 18.0056 19.2726 18.2216 19.284C18.4914 19.2981 18.7628 19.2794 19.033 19.2899C19.2218 19.2972 19.2977 19.228 19.2897 19.0362C19.2789 18.7773 19.3062 18.5159 19.2821 18.2589C19.2554 17.9745 19.3791 17.9115 19.633 17.9257C19.9477 17.9433 20.2641 17.9297 20.6119 17.9298C20.6441 17.93 20.6447 17.9307 20.6446 17.9624C20.6443 18.7738 20.6375 19.5537 20.6482 20.3332C20.6513 20.5607 20.5942 20.6666 20.3467 20.648C20.0995 20.6295 19.8484 20.6602 19.6015 20.6396C19.3378 20.6176 19.2657 20.7263 19.2829 20.9719C19.3011 21.2306 19.2785 21.4918 19.2896 21.7513C19.2978 21.9455 19.2179 22.0104 19.0305 22.0036C18.7484 21.9934 18.4653 22.009 18.1832 21.9984C17.9924 21.9913 17.9195 22.0635 17.9274 22.2542C17.9381 22.5137 17.9152 22.775 17.9342 23.0335C17.9525 23.2837 17.8708 23.3699 17.6124 23.3636C16.9347 23.3471 16.2562 23.3695 15.5786 23.3525C15.3069 23.3456 15.1802 23.4107 15.2115 23.7055C15.234 23.9178 15.1958 24.1368 15.2206 24.3486C15.2571 24.6594 15.1282 24.7227 14.8382 24.7211C12.7025 24.7096 10.5667 24.715 8.43088 24.7152C8.43079 24.3781 8.41206 24.0397 8.43627 23.7044C8.4574 23.4119 8.34135 23.3313 8.07004 23.3544C7.83581 23.3744 7.59785 23.3474 7.36279 23.3618C7.14597 23.375 7.05952 23.3017 7.06964 23.0764C7.08476 22.74 7.07343 22.4025 7.07316 22.0337C7.07296 22.002 7.07381 22.0012 7.10586 22.0011C7.56921 22.0005 8.00051 22.0001 8.43181 21.9997Z" fill="#D7D7D7"/>
<path d="M22.0005 5.75087C22.4322 5.71859 22.8642 5.71787 23.3282 5.71684C23.3601 5.71653 23.3588 5.71709 23.3585 5.74843C23.3589 6.21076 23.3596 6.64176 23.3599 7.1047C23.4324 8.58643 23.2278 10.0412 23.4776 11.4915C23.5445 11.8803 23.3716 12.3042 23.3654 12.7128C23.3476 13.8773 23.3477 15.0424 23.3663 16.2069C23.3713 16.5162 23.2728 16.6061 22.9807 16.5779C22.7454 16.5552 22.5055 16.5841 22.2689 16.5702C22.0575 16.5578 21.9898 16.6438 21.9987 16.8468C22.011 17.129 21.9951 17.4123 22.0037 17.6948C22.0091 17.8709 21.9394 17.9361 21.7648 17.9325C21.3918 17.925 21.0185 17.9306 20.6453 17.9309L20.6442 17.9298C20.6441 17.1281 20.6513 16.3268 20.6407 15.5257C20.6377 15.297 20.6974 15.1942 20.943 15.2124C21.1899 15.2307 21.4406 15.2002 21.6871 15.2208C21.9501 15.2427 22.0211 15.1348 22.0058 14.8892C21.9876 14.5969 22.0016 14.3027 22.0016 14.0092C22.0014 11.267 22.0011 8.5247 22.0005 5.75087Z" fill="#D7D7D7"/>
<path d="M17.9305 5.71682C18.2999 5.71677 18.6693 5.72382 19.0383 5.71411C19.2288 5.70909 19.2952 5.78294 19.2901 5.96967C19.2805 6.31627 19.2875 6.66332 19.2876 7.04195C19.2877 7.07371 19.2873 7.074 19.2554 7.07408C18.8767 7.07409 18.5296 7.06715 18.1831 7.07668C17.9963 7.08181 17.9225 7.01535 17.9275 6.82489C17.9371 6.45593 17.9306 6.08603 17.9305 5.71682Z" fill="#E9EAE9"/>
<path d="M7.07428 9.78813C7.07463 9.45035 7.089 9.11181 7.07076 8.77503C7.05686 8.51843 7.12436 8.40086 7.40539 8.42693C7.66214 8.45075 7.9232 8.42367 8.18171 8.43451C8.37368 8.44257 8.4423 8.36596 8.43471 8.17783C8.42427 7.91929 8.44641 7.659 8.42813 7.40133C8.41074 7.15631 8.48264 7.05319 8.74531 7.07015C9.07047 7.09113 9.39803 7.07493 9.78815 7.07437C11.3782 7.0741 12.9047 7.07427 14.4312 7.07438C15.2164 7.07443 15.2127 7.07442 15.2176 7.84707C15.2218 8.51861 15.1294 8.42169 15.7835 8.43061C15.9417 8.43277 16.1017 8.44537 16.258 8.42773C16.5205 8.39812 16.5805 8.51234 16.5784 8.75807C16.5677 10.0018 16.5738 11.2456 16.5738 12.4894C16.5738 13.2922 16.564 14.0952 16.579 14.8978C16.5838 15.1549 16.501 15.2393 16.2496 15.2207C15.9909 15.2016 15.7294 15.2246 15.4698 15.2139C15.2788 15.2059 15.2068 15.2789 15.2139 15.4697C15.2245 15.752 15.2088 16.0353 15.2191 16.3176C15.226 16.5059 15.1592 16.5838 14.9657 16.5761C14.6948 16.5652 14.4225 16.5844 14.1519 16.5701C13.9353 16.5586 13.8418 16.6269 13.8559 16.8557C13.8719 17.1148 13.849 17.3762 13.8628 17.6355C13.8741 17.8491 13.8109 17.9365 13.5799 17.9347C12.404 17.9251 11.228 17.9261 10.0521 17.9341C9.83806 17.9355 9.77651 17.8533 9.78515 17.6539C9.7969 17.383 9.77733 17.1107 9.79126 16.8401C9.80218 16.6279 9.71581 16.5678 9.514 16.5703C8.82437 16.5789 8.13404 16.5575 7.44505 16.58C7.1415 16.59 7.06617 16.4963 7.0679 16.1993C7.08032 14.0623 7.07439 11.9252 7.07428 9.78813Z" fill="white"/>
<path d="M7.04224 9.78766C7.07415 11.9246 7.08008 14.0617 7.06766 16.1987C7.06593 16.4957 7.14125 16.5894 7.44481 16.5795C8.1338 16.5569 8.82412 16.5784 9.51375 16.5698C9.71556 16.5673 9.80194 16.6274 9.79102 16.8395C9.77708 17.1102 9.79665 17.3825 9.78491 17.6533C9.77626 17.8527 9.83781 17.935 10.0518 17.9335C11.2277 17.9255 12.4037 17.9246 13.5796 17.9341C13.8106 17.936 13.8739 17.8485 13.8625 17.635C13.8487 17.3756 13.8716 17.1142 13.8557 16.8552C13.8416 16.6263 13.9351 16.5581 14.1516 16.5695C14.4222 16.5838 14.6945 16.5646 14.9655 16.5755C15.1589 16.5833 15.2258 16.5054 15.2189 16.317C15.2086 16.0347 15.2243 15.7515 15.2137 15.4692C15.2065 15.2783 15.2786 15.2054 15.4695 15.2133C15.7292 15.2241 15.9907 15.201 16.2493 15.2201C16.5008 15.2387 16.5835 15.1544 16.5787 14.8972C16.5638 14.0947 16.5736 13.2917 16.5736 12.4889C16.5735 11.2451 16.5675 10.0012 16.5782 8.75752C16.5803 8.51179 16.5203 8.39757 16.2578 8.42718C16.1014 8.44482 15.9415 8.43222 15.7832 8.43006C15.1292 8.42113 15.2216 8.51805 15.2173 7.84652C15.2124 7.07386 15.2162 7.07388 14.4309 7.07382C12.9044 7.07371 11.378 7.07355 9.81968 7.07334C9.78795 6.6422 9.78803 6.21112 9.78807 5.74825C12.4808 5.71656 15.1736 5.71666 17.8982 5.71682C17.93 6.08609 17.9371 6.45548 17.9274 6.82444C17.9225 7.0149 17.9963 7.08136 18.183 7.07622C18.5296 7.0667 18.8766 7.07364 19.2552 7.07382C19.287 9.2105 19.2814 11.3471 19.2937 13.4836C19.2954 13.7781 19.2247 13.8987 18.918 13.8634C18.706 13.839 18.4877 13.8731 18.2744 13.855C18.0151 13.833 17.9153 13.9115 17.9239 14.1912C17.9442 14.8462 17.9065 15.5035 17.9394 16.1575C17.9577 16.5205 17.8294 16.6133 17.4989 16.5774C17.2755 16.5532 17.0468 16.5816 16.8213 16.5703C16.6249 16.5604 16.5642 16.6458 16.5707 16.8312C16.5807 17.1135 16.5651 17.3967 16.5759 17.6789C16.5833 17.8721 16.5062 17.9393 16.3177 17.9324C16.0354 17.9221 15.7522 17.9377 15.47 17.9272C15.2798 17.9202 15.2063 17.991 15.2135 18.1825C15.2242 18.4647 15.2085 18.7479 15.2187 19.0302C15.2255 19.2177 15.1599 19.2898 14.9662 19.2894C12.8749 19.2848 10.7835 19.2842 8.69219 19.2905C8.47542 19.2911 8.41841 19.2041 8.42826 19.0078C8.43957 18.7823 8.42047 18.5552 8.43359 18.3298C8.44749 18.0911 8.32844 18.0043 8.11223 17.9981C7.3351 17.9758 6.558 17.9525 5.74915 17.9295C5.71725 15.3473 5.72147 12.7652 5.71096 10.1833C5.70974 9.88591 5.76969 9.74974 6.09775 9.78153C6.39935 9.81076 6.70601 9.78774 7.04224 9.78766Z" fill="#F1F2F2"/>
<path d="M5.68519 17.9298C5.71704 18.267 5.7358 18.6054 5.71159 18.9407C5.69048 19.2332 5.80644 19.3139 6.0778 19.2908C6.31204 19.2708 6.55001 19.2978 6.78507 19.2834C7.00204 19.2701 7.08824 19.3437 7.07812 19.5689C7.06299 19.9052 7.07427 20.2428 7.0744 20.6116C6.27565 20.6432 5.47662 20.6336 4.67806 20.6485C4.42226 20.6533 4.35106 20.5707 4.35568 20.3212C4.37003 19.5451 4.36099 18.7686 4.36168 17.9603C4.79269 17.9288 5.22306 17.9293 5.68519 17.9298Z" fill="#E2E2E2"/>
<path d="M8.43165 21.9685C8.00059 22.0005 7.56929 22.0009 7.1063 22.0012C7.07445 21.57 7.0743 21.1389 7.07422 20.6761C7.4434 20.6444 7.81269 20.6514 8.18155 20.6418C8.37136 20.6369 8.43903 20.7095 8.43386 20.8967C8.42429 21.2432 8.4313 21.5901 8.43165 21.9685Z" fill="#E2E2E2"/>
<path d="M8.4316 26.0719C8.00055 26.0716 7.5695 26.0713 7.10688 26.0687C7.07488 25.7089 7.08536 25.3511 7.07005 24.9944C7.06038 24.7691 7.14867 24.703 7.36265 24.7117C7.69709 24.7253 8.03249 24.7152 8.39929 24.715C8.43108 24.7148 8.43097 24.7149 8.43108 24.7467C8.43127 25.2101 8.43136 25.6419 8.4311 26.0731L8.4316 26.0719Z" fill="#BCBCBC"/>
<path d="M28.7887 12.5012C28.7896 12.9315 28.7886 13.3628 28.7882 13.8255C28.7887 15.6469 28.7886 17.4367 28.7898 19.2586C28.7908 19.7224 28.7905 20.1541 28.7926 20.618C28.7921 21.08 28.7893 21.5098 28.7818 21.9712C28.4534 22.0028 28.1283 22.0203 27.8061 21.9976C27.5216 21.9776 27.3965 22.0519 27.4243 22.3626C27.4521 22.6728 27.4311 22.9874 27.4327 23.3324C27.4316 23.7934 27.4291 24.2221 27.4218 24.682C27.0789 24.7138 26.7395 24.7332 26.4032 24.7092C26.1226 24.6892 26.0533 24.8005 26.0684 25.0578C26.0868 25.3722 26.0717 25.6886 26.0684 26.035C25.638 26.066 25.2102 26.066 24.7153 26.066C24.7153 26.5146 24.7153 26.9369 24.7136 27.39C24.2834 27.4245 23.855 27.4282 23.3953 27.4334C22.5665 27.4339 21.7688 27.441 20.9715 27.4267C20.7276 27.4223 20.6246 27.4827 20.6414 27.7444C20.6622 28.0688 20.646 28.3956 20.645 28.7529C20.2137 28.7857 19.7832 28.787 19.3211 28.789C17.5006 28.7889 15.7116 28.788 13.8907 28.7874C13.4274 28.7874 12.996 28.7872 12.5327 28.788C12.5007 28.789 12.5017 28.7872 12.5021 28.7549C12.5024 28.44 12.5021 28.1573 12.5022 27.8747C12.5024 27.4308 12.5025 27.4305 12.937 27.4304C14.9154 27.43 16.8939 27.4195 18.8721 27.439C19.2316 27.4425 19.3299 27.3313 19.2922 26.9993C19.2681 26.7872 19.3001 26.5693 19.2844 26.3556C19.2676 26.1272 19.3628 26.0582 19.5797 26.0697C19.8502 26.0841 20.1225 26.0649 20.3934 26.0757C20.5862 26.0835 20.6543 26.0069 20.6473 25.818C20.6369 25.5357 20.6526 25.2525 20.6421 24.9703C20.635 24.7804 20.7051 24.7062 20.897 24.7134C21.1792 24.7242 21.4624 24.7085 21.7446 24.7187C21.9314 24.7254 22.0132 24.6618 22.0045 24.4668C21.9933 24.2186 22.0181 23.9681 21.9976 23.7211C21.9748 23.447 22.0578 23.3435 22.3504 23.3528C23.0054 23.3737 23.6623 23.3401 24.3169 23.3665C24.6543 23.3801 24.7343 23.264 24.7227 22.9455C24.699 22.2906 24.7295 21.6339 24.7098 20.9788C24.7014 20.7016 24.7969 20.6213 25.0587 20.6409C25.3172 20.6603 25.5786 20.6381 25.8383 20.6471C26.0164 20.6533 26.0776 20.5793 26.0741 20.4066C26.0667 20.0337 26.0722 19.6605 26.1042 19.2872C26.3728 19.2869 26.6095 19.2894 26.8462 19.2863C27.5166 19.2777 27.4185 19.3744 27.4278 18.7218C27.4299 18.5753 27.4281 18.4288 27.4281 18.2822C27.4286 16.4673 27.4347 14.6524 27.4236 12.8376C27.4219 12.5657 27.5045 12.4817 27.7692 12.498C28.1062 12.5188 28.4453 12.5041 28.7835 12.5047C28.7835 12.5047 28.7868 12.5021 28.7887 12.5012Z" fill="#AEAEAE"/>
<path d="M26.0721 19.2865C26.0719 19.6596 26.0664 20.0327 26.0738 20.4057C26.0773 20.5783 26.0161 20.6524 25.8381 20.6462C25.5784 20.6371 25.317 20.6593 25.0584 20.6399C24.7966 20.6203 24.7012 20.7006 24.7095 20.9779C24.7292 21.633 24.6987 22.2897 24.7224 22.9445C24.734 23.263 24.654 23.3792 24.3166 23.3656C23.662 23.3392 23.0051 23.3727 22.3501 23.3518C22.0575 23.3425 21.9745 23.446 21.9973 23.7202C22.0179 23.9672 21.9931 24.2176 22.0042 24.4658C22.0129 24.6608 21.9312 24.7244 21.7444 24.7177C21.4621 24.7075 21.1789 24.7232 20.8967 24.7125C20.7048 24.7052 20.6348 24.7795 20.6418 24.9693C20.6524 25.2516 20.6367 25.5348 20.6471 25.817C20.654 26.006 20.5859 26.0825 20.3931 26.0748C20.1222 26.0639 19.85 26.0831 19.5794 26.0688C19.3626 26.0573 19.2674 26.1263 19.2841 26.3547C19.2998 26.5683 19.2678 26.7863 19.2919 26.9983C19.3296 27.3303 19.2313 27.4415 18.8719 27.438C16.8937 27.4185 14.9152 27.429 12.9368 27.4294C12.5023 27.4295 12.5022 27.4298 12.5019 27.8737C12.5018 28.1564 12.5021 28.439 12.5025 28.7533C12.0714 28.785 11.6399 28.785 11.1768 28.782C11.145 28.3502 11.1448 27.9216 11.1447 27.4293C11.1442 26.9353 11.1436 26.5048 11.1751 26.0735C12.676 26.0724 14.145 26.0741 15.614 26.0702C15.9164 26.0694 16.3483 26.1627 16.4873 26.0058C16.6496 25.8228 16.5561 25.413 16.5734 25.1016C16.5746 25.079 16.5765 25.0559 16.5731 25.0339C16.5335 24.7776 16.6458 24.7048 16.8966 24.7102C17.5969 24.7252 18.2978 24.7081 18.9982 24.7189C19.2179 24.7223 19.3041 24.6544 19.2907 24.4296C19.2751 24.1707 19.298 23.9095 19.2838 23.6503C19.272 23.4345 19.3397 23.3382 19.5689 23.3543C19.7938 23.3701 20.0222 23.3409 20.2462 23.3617C20.5438 23.3894 20.6883 23.3077 20.6493 22.9771C20.6217 22.7431 20.6548 22.5025 20.6408 22.2661C20.6282 22.0532 20.7177 21.989 20.9188 21.9976C21.2007 22.0095 21.4838 21.9938 21.7661 22.0025C21.9427 22.008 22.0078 21.9372 22.0029 21.7632C21.9947 21.4697 22.007 21.1756 21.999 20.882C21.9943 20.7092 22.0573 20.6355 22.235 20.6416C22.4946 20.6506 22.7558 20.6289 23.0143 20.6477C23.2734 20.6665 23.3725 20.5912 23.3646 20.3115C23.3448 19.6115 23.363 18.9105 23.3554 18.21C23.3533 18.0157 23.3996 17.9166 23.6184 17.9265C23.9342 17.9407 24.2512 17.9349 24.5674 17.9285C24.7675 17.9244 24.8579 18.0076 24.8529 18.2104C24.8464 18.4701 24.8586 18.7304 24.8496 18.9899C24.842 19.21 24.9384 19.2948 25.1538 19.288C25.4586 19.2785 25.7639 19.2842 26.0698 19.2841L26.0721 19.2865Z" fill="#BCBCBC"/>
<path d="M11.1433 26.0749C11.1439 26.5054 11.1445 26.9359 11.1452 27.3982C10.7138 27.4301 10.2822 27.4302 9.81878 27.4314C9.35811 27.4308 8.92936 27.4291 8.46969 27.4247C8.4363 26.9934 8.43383 26.5648 8.43164 26.1044C8.43191 26.0726 8.43107 26.0733 8.46316 26.0732C9.37795 26.0737 10.2606 26.0743 11.1433 26.0749Z" fill="#AEAEAE"/>
<path d="M28.7844 12.4717C28.4452 12.5031 28.1061 12.5179 27.7692 12.4971C27.5044 12.4807 27.4219 12.5647 27.4235 12.8366C27.4346 14.6514 27.4285 16.4664 27.428 18.2812C27.428 18.4278 27.4298 18.5744 27.4277 18.7209C27.4184 19.3735 27.5165 19.2767 26.8461 19.2853C26.6095 19.2884 26.3727 19.2859 26.1041 19.2862C26.0723 19.2865 26.0707 19.2849 26.0708 19.2527C26.0715 15.6238 26.0722 12.0271 26.0728 8.43039C26.5014 8.43088 26.9308 8.43067 27.3903 8.43197C27.4243 8.86228 27.4274 9.2918 27.4313 9.75272C27.4313 10.1415 27.44 10.4993 27.426 10.8561C27.4176 11.07 27.4834 11.1591 27.7088 11.1489C28.0432 11.1337 28.3788 11.1449 28.7444 11.1446C28.7784 11.5761 28.7819 12.0079 28.7844 12.4717Z" fill="#BCBCBC"/>
<path d="M23.3603 7.07261C23.3596 6.64161 23.3589 6.21061 23.3584 5.74771C23.7889 5.71685 24.2193 5.71788 24.6811 5.72154C24.7137 6.15292 24.7149 6.58167 24.716 7.04216C24.7158 7.07391 24.7161 7.07364 24.6843 7.07364C24.2218 7.07329 23.791 7.07295 23.3603 7.07261Z" fill="#BCBCBC"/>
<path d="M26.0372 7.07585C26.0701 7.50736 26.0717 7.93685 26.0735 8.39804C26.0736 8.42972 26.0729 8.43047 26.0411 8.43089C25.6623 8.43135 25.315 8.42445 24.9681 8.43422C24.7805 8.43949 24.7081 8.37169 24.7131 8.18169C24.7229 7.81244 24.716 7.44275 24.7161 7.07324C25.1461 7.07336 25.5758 7.07375 26.0372 7.07585Z" fill="#BCBCBC"/>
<path d="M16.541 20.6434C16.573 20.9916 16.5577 21.3407 16.5785 21.6877C16.5942 21.9495 16.4914 22.0097 16.2478 22.0055C15.4729 21.9922 14.6977 22.0007 13.8907 22.0004C13.859 21.6624 13.8717 21.3242 13.8555 20.9874C13.8424 20.7165 13.9557 20.636 14.2138 20.6398C14.9788 20.6511 15.7441 20.6436 16.541 20.6434Z" fill="#E2E2E2"/>
<path d="M24.6844 7.07331C24.7161 7.44282 24.723 7.81251 24.7132 8.18176C24.7081 8.37176 24.7806 8.43956 24.9682 8.43429C25.315 8.42452 25.6624 8.43142 26.0413 8.43092C26.0724 12.0272 26.0718 15.6239 26.0703 19.252C25.7643 19.2843 25.4591 19.2786 25.1542 19.2881C24.9388 19.2949 24.8425 19.2101 24.8501 18.99C24.8591 18.7304 24.8468 18.4702 24.8533 18.2104C24.8584 18.0077 24.768 17.9245 24.5679 17.9286C24.2516 17.935 23.9347 17.9407 23.6189 17.9265C23.4001 17.9167 23.3538 18.0157 23.3559 18.2101C23.3635 18.9106 23.3453 19.6116 23.3651 20.3116C23.373 20.5913 23.2739 20.6666 23.0148 20.6478C22.7562 20.629 22.495 20.6507 22.2354 20.6417C22.0577 20.6356 21.9948 20.7092 21.9995 20.8821C22.0074 21.1756 21.9952 21.4698 22.0034 21.7633C22.0082 21.9373 21.9432 22.008 21.7665 22.0026C21.4843 21.9939 21.2012 22.0096 20.9192 21.9977C20.7181 21.9891 20.6287 22.0532 20.6413 22.2662C20.6553 22.5026 20.6221 22.7432 20.6497 22.9772C20.6888 23.3078 20.5442 23.3895 20.2467 23.3618C20.0226 23.341 19.7942 23.3702 19.5693 23.3544C19.3402 23.3383 19.2724 23.4346 19.2843 23.6504C19.2985 23.9095 19.2756 24.1707 19.2911 24.4297C19.3046 24.6545 19.2183 24.7223 18.9987 24.719C18.2983 24.7081 17.5974 24.7253 16.8971 24.7103C16.6463 24.7049 16.534 24.7776 16.5735 25.0339C16.5769 25.056 16.5751 25.0791 16.5738 25.1017C16.5566 25.4131 16.65 25.8229 16.4877 26.0059C16.3488 26.1627 15.9169 26.0695 15.6145 26.0703C14.1455 26.0742 12.6765 26.0724 11.1755 26.0735C10.2608 26.0738 9.37813 26.0732 8.46367 26.0732C8.43185 25.642 8.43176 25.2103 8.43164 24.7467C10.5673 24.7148 12.7031 24.7093 14.8388 24.7209C15.1287 24.7224 15.2576 24.6591 15.2212 24.3484C15.1963 24.1366 15.2346 23.9176 15.2121 23.7053C15.1807 23.4105 15.3075 23.3454 15.5792 23.3522C16.2567 23.3693 16.9353 23.3469 17.6129 23.3634C17.8713 23.3697 17.9531 23.2835 17.9347 23.0333C17.9158 22.7748 17.9387 22.5135 17.928 22.254C17.9201 22.0632 17.993 21.9911 18.1837 21.9982C18.4658 22.0088 18.7489 21.9931 19.0311 22.0034C19.2184 22.0102 19.2984 21.9453 19.2901 21.751C19.2791 21.4916 19.3016 21.2303 19.2835 20.9717C19.2662 20.7261 19.3384 20.6173 19.6021 20.6394C19.849 20.66 20.1 20.6293 20.3472 20.6478C20.5947 20.6664 20.6519 20.5605 20.6487 20.333C20.638 19.5534 20.6449 18.7736 20.6452 17.9622C21.0185 17.9302 21.3918 17.9245 21.7648 17.9321C21.9394 17.9356 22.0091 17.8704 22.0037 17.6943C21.9952 17.4118 22.0111 17.1285 21.9987 16.8464C21.9899 16.6433 22.0575 16.5573 22.2689 16.5697C22.5056 16.5836 22.7454 16.5547 22.9807 16.5774C23.2728 16.6056 23.3713 16.5157 23.3664 16.2065C23.3477 15.042 23.3476 13.8768 23.3654 12.7123C23.3716 12.3037 23.5446 11.8798 23.4776 11.4911C23.2278 10.0408 23.4324 8.58596 23.3599 7.10422C23.791 7.07263 24.2218 7.07297 24.6844 7.07331Z" fill="#C9CACA"/>
</g>
<defs>
<clipPath id="clip0_63_2">
<rect width="32" height="32" fill="white"/>
</clipPath>
</defs>
</svg>
